<svg width="33" height="21" viewBox="0 0 33 21" fill="none" xmlns="http://www.w3.org/2000/svg">
<path d="M10.8465 7.4618C10.5277 7.74506 10.5277 8.20373 10.8465 8.48693L15.9817 13.0496H0.815976C0.365022 13.0496 0 13.3739 0 13.7746C0 14.1753 0.365022 14.4996 0.815976 14.4996H15.9817L10.8471 19.0617C10.5283 19.345 10.5283 19.8037 10.8471 20.0869C11.1659 20.3701 11.6821 20.3701 12.0008 20.0869L18.5287 14.2869C18.688 14.1453 18.7675 13.9597 18.7675 13.7741C18.7675 13.5885 18.688 13.4029 18.5287 13.2613L12.0008 7.46129C11.682 7.17905 11.1653 7.17905 10.8465 7.4618Z" fill="black"/>
<path d="M20.6387 0.21202L14.1109 6.01199C13.9515 6.15359 13.8721 6.3392 13.8721 6.52481C13.8721 6.71042 13.9515 6.89603 14.1109 7.03763L20.6387 12.8376C20.9574 13.1209 21.4737 13.1209 21.7925 12.8376C22.1112 12.5543 22.1112 12.0957 21.7925 11.8125L16.6578 7.24981L31.8235 7.24981C32.2745 7.24981 32.6395 6.92549 32.6395 6.52481C32.6395 6.12414 32.2745 5.79982 31.8235 5.79982L16.6578 5.79982L21.7925 1.23766C22.1113 0.954405 22.1113 0.495732 21.7925 0.21253C21.4737 -0.070728 20.9575 -0.0707281 20.6387 0.21202Z" fill="black"/>
</svg>
