<svg width="27" height="20" viewBox="0 0 27 20" fill="none" xmlns="http://www.w3.org/2000/svg">
<path d="M9.66667 14.6333C9.66667 16.7503 7.95042 18.4666 5.83333 18.4666C3.71624 18.4666 2 16.7503 2 14.6333C2 12.5162 3.71624 10.7999 5.83333 10.7999C7.95042 10.7999 9.66667 12.5162 9.66667 14.6333ZM9.66667 14.6333H19.0583M19.0583 14.6333H24.6167C24.8284 14.6333 25 14.8048 25 15.0166V18.4666M19.0583 14.6333V18.4666" stroke="#6F6E70" stroke-width="3" stroke-linecap="round" stroke-linejoin="round"/>
<path d="M7.3 4.6C8.57025 4.6 9.6 3.57025 9.6 2.3C9.6 1.02974 8.57025 0 7.3 0C6.02974 0 5 1.02974 5 2.3C5 3.57025 6.02974 4.6 7.3 4.6Z" fill="#6F6E70"/>
<path d="M14.2004 4.6C15.4706 4.6 16.5004 3.57025 16.5004 2.3C16.5004 1.02974 15.4706 0 14.2004 0C12.9301 0 11.9004 1.02974 11.9004 2.3C11.9004 3.57025 12.9301 4.6 14.2004 4.6Z" fill="#6F6E70"/>
<path d="M21.1008 4.6C22.371 4.6 23.4008 3.57025 23.4008 2.3C23.4008 1.02974 22.371 0 21.1008 0C19.8305 0 18.8008 1.02974 18.8008 2.3C18.8008 3.57025 19.8305 4.6 21.1008 4.6Z" fill="#6F6E70"/>
</svg>
