<svg width="19" height="22" viewBox="0 0 19 22" fill="none" xmlns="http://www.w3.org/2000/svg">
<path d="M6.75607 4.59586L12.0901 10.6392L6.71009 16.6304C6.56094 16.7963 6.56018 17.0667 6.70781 17.234C6.85544 17.4013 7.09617 17.4024 7.24494 17.2366L12.8401 11.0059C12.91 10.928 12.947 10.8276 12.952 10.7258C12.9535 10.6962 12.9518 10.6665 12.948 10.6373C12.9495 10.6257 12.952 10.6146 12.9522 10.6031C12.9577 10.487 12.9214 10.3686 12.8427 10.2798L7.29548 3.99507C7.14785 3.82753 6.90731 3.82646 6.75816 3.99251C6.60901 4.15855 6.60825 4.42875 6.75607 4.59586Z" fill="#656565"/>
</svg>
